<svg width="56" height="49" viewBox="0 0 56 49" fill="none" xmlns="http://www.w3.org/2000/svg">
<g clip-path="url(#clip0_114_13)">
<path d="M28 4.08325C15.12 4.08325 4.66669 13.2299 4.66669 24.4999C4.66669 35.7699 15.12 44.9166 28 44.9166C40.88 44.9166 51.3334 35.7699 51.3334 24.4999C51.3334 13.2299 40.88 4.08325 28 4.08325ZM28 10.2083C31.8734 10.2083 35 12.9441 35 16.3333C35 19.7224 31.8734 22.4583 28 22.4583C24.1267 22.4583 21 19.7224 21 16.3333C21 12.9441 24.1267 10.2083 28 10.2083ZM28 39.1999C22.1667 39.1999 17.01 36.5866 14 32.6257C14.07 28.5628 23.3334 26.3374 28 26.3374C32.6434 26.3374 41.93 28.5628 42 32.6257C38.99 36.5866 33.8334 39.1999 28 39.1999Z" fill="white"/>
</g>
<defs>
<clipPath id="clip0_114_13">
<rect width="56" height="49" fill="white"/>
</clipPath>
</defs>
</svg>
